PathFileType	4	(X/Y/Z)	C:\Users\WrightLab\Desktop\Jo\P1_boxCal16.trc
DataRate	CameraRate	NumFrames	NumMarkers	Units	OrigDataRate	OrigDataStartFrame	OrigNumFrames
100.00	100.00	      25	19	mm	100.00	1003	      1146
Frame#	Time	Headset_Front			Headset_Back			Headset_Left			Headset_Right			Left_Shoulder			Right_Shoulder			Sternum			C7			Left Elbow			Right Elbow			Left Wrist			Right Wrist			Left ASIS			Right ASIS			S2			Left Knee			Right Knee			Left Ankle			Right Ankle			
		X1	Y1	Z1	X2	Y2	Z2	X3	Y3	Z3	X4	Y4	Z4	X5	Y5	Z5	X6	Y6	Z6	X7	Y7	Z7	X8	Y8	Z8	X9	Y9	Z9	X10	Y10	Z10	X11	Y11	Z11	X12	Y12	Z12	X13	Y13	Z13	X14	Y14	Z14	X15	Y15	Z15	X16	Y16	Z16	X17	Y17	Z17	X18	Y18	Z18	X19	Y19	Z19	

1003	10.020	-317.88159	851.47876	2509.75562										-829.12830	504.30270	2400.87598	-486.31332	150.85472	2452.26538													-478.91901	504.42709	2418.24854																									
1004	10.030	-322.38187	849.87537	2509.19507										-829.01709	504.33502	2400.79761	-486.26279	150.82643	2452.22583													-478.89066	504.41043	2418.22852																									
1005	10.040	-325.50174	848.11615	2509.62964										-829.08423	504.35492	2400.75000	-486.27451	150.87131	2452.26538													-478.95453	504.43768	2418.26855																									
1006	10.050	-327.87021	846.89258	2509.05420										-829.23840	504.41245	2400.69507	-486.25653	150.88542	2452.23218													-478.90698	504.45193	2418.25586																									
1007	10.060	-329.43433	846.76654	2509.40186										-829.10999	504.44910	2400.47241	-486.31326	150.84413	2452.24658													-478.91937	504.42371	2418.24707																									
1008	10.070	-330.00543	846.52832	2509.50415										-829.16125	504.38870	2400.17920	-486.27383	150.87297	2452.21631													-478.96448	504.39639	2418.25220																									
1009	10.080	-329.80835	846.80566	2509.93726										-829.07245	504.36761	2399.97729	-486.32709	150.87994	2452.25366													-478.79678	504.43204	2418.07935																									
1010	10.090	-328.89764	846.98999	2509.99951										-829.14911	504.35092	2399.70483	-486.27087	150.92490	2452.25635													-478.84128	504.43845	2418.10107																									
1011	10.100	-327.27872	847.29175	2510.12378										-829.13379	504.36282	2399.45142	-486.27499	150.90443	2452.22461													-478.69821	504.50085	2417.81689																									
1012	10.110	-325.32785	848.73730	2511.58789										-829.01190	504.36575	2399.15405	-486.31952	150.81737	2452.19067													-478.69629	504.52765	2417.82959																									
1013	10.120	-322.93463	849.29004	2511.43506										-829.08160	504.30884	2398.92456	-486.35141	150.85190	2452.21973													-478.69418	504.47467	2417.80225																									
1014	10.130	-320.45056	851.14124	2513.16943										-828.91028	504.33109	2398.78516	-486.28317	150.91632	2452.22876													-478.70584	504.44321	2417.79150																									
1015	10.140	-317.10992	853.07220	2513.33032										-828.95892	504.36194	2398.69873	-486.27972	150.92696	2452.24097													-478.65512	504.41675	2417.75708																									
1016	10.150	-314.04816	854.41962	2513.99146										-828.83502	504.24249	2398.38965	-486.27643	150.80231	2452.17432													-478.53174	504.44196	2417.68213																									
1017	10.160	-310.20862	856.10742	2514.40723										-828.77386	504.24509	2398.18018	-486.28448	150.87067	2452.19629													-478.57095	504.43604	2417.69556																									
1018	10.170	-306.84668	858.76489	2515.89941										-828.60602	504.29916	2398.07056	-486.26202	150.88837	2452.19580													-478.49692	504.40082	2417.64697																									
1019	10.180	-303.14398	860.82678	2517.50073										-828.51581	504.27603	2397.91431	-486.28461	150.90619	2452.23633													-478.51950	504.38544	2417.64893																									
1020	10.190	-299.29877	863.38019	2517.98901										-828.36395	504.29611	2397.73193	-486.25726	150.92758	2452.22290													-478.49554	504.42419	2417.65820																									
1021	10.200	-295.76099	865.52905	2519.09961	-1031.40479	856.04706	2373.00952							-828.37128	504.21387	2397.50513	-486.25259	150.93384	2452.21655													-478.48050	504.41064	2417.64502																									
1022	10.210	-291.88651	867.43921	2519.03369										-828.40710	504.22641	2397.38892	-486.24063	150.91202	2452.21338													-478.49689	504.41977	2417.65649																									
1023	10.220	-288.03445	869.48767	2519.87720	-1038.15784	859.14404	2369.57202							-828.28778	504.18771	2397.14478	-486.30157	150.90115	2452.22412													-478.45792	504.38739	2417.62402																									
1024	10.230	-284.87939	872.45190	2521.36523										-828.22241	504.11960	2396.94482	-486.29190	150.94740	2452.24365													-478.43149	504.45816	2417.64819																									
1025	10.240	-281.35510	874.34686	2522.53027	-1043.31445	861.91699	2365.64307							-828.13904	504.07840	2396.66357	-486.24252	150.92122	2452.21997													-478.44717	504.48624	2417.66870																									
1026	10.250	-278.34238	876.45056	2522.15015	-1046.34180	862.88391	2363.91382							-827.86951	503.85864	2396.18970	-486.24884	150.89700	2452.22827													-478.38712	504.46851	2417.63477																									
1027	10.260	-275.20374	878.37042	2523.06787	-1047.86694	863.92712	2360.77197							-827.80286	504.04166	2396.22925	-486.22562	150.90895	2452.22046													-478.16446	504.50269	2417.43872																									
